<?xml version="1.0" standalone="no"?>
<!DOCTYPE svg PUBLIC "-//W3C//DTD SVG 20010904//EN"
 "http://www.w3.org/TR/2001/REC-SVG-20010904/DTD/svg10.dtd">
<svg version="1.0" xmlns="http://www.w3.org/2000/svg"
 width="192.000000pt" height="170.000000pt" viewBox="0 0 192.000000 170.000000"
 preserveAspectRatio="xMidYMid meet">

<g transform="translate(0.000000,170.000000) scale(0.100000,-0.100000)"
fill="#000000" stroke="none">
<path d="M190 1595 l0 -105 -95 0 -95 0 0 -320 0 -320 95 0 94 0 3 -117 3
-118 105 -5 105 -5 0 -90 0 -90 102 -3 102 -3 3 -112 3 -112 108 -3 107 -3 0
-94 0 -95 130 0 130 0 0 95 0 95 105 0 105 0 0 115 0 114 106 3 107 3 -2 92
-2 92 108 3 108 3 -4 86 c-2 48 0 101 4 118 l7 31 94 0 94 0 0 320 0 319 -97
3 -97 3 0 100 -1 100 -332 3 -333 2 0 -105 0 -105 -106 0 -105 0 2 103 2 102
-332 3 -331 2 0 -105z m278 -352 l-3 -218 -122 -3 -123 -3 0 221 0 220 125 0
125 0 -2 -217z"/>
</g>
</svg>
