<?xml version="1.0" standalone="no"?>
<!DOCTYPE svg PUBLIC "-//W3C//DTD SVG 20010904//EN"
 "http://www.w3.org/TR/2001/REC-SVG-20010904/DTD/svg10.dtd">
<svg version="1.0" xmlns="http://www.w3.org/2000/svg"
 width="251.000000pt" height="248.000000pt" viewBox="0 0 251.000000 248.000000"
 preserveAspectRatio="xMidYMid meet">

<g transform="translate(0.000000,248.000000) scale(0.100000,-0.100000)"
fill="#000000" stroke="none">
<path d="M0 1240 l0 -1240 573 1 c369 1 551 5 512 10 -468 68 -862 393 -1009
832 -47 143 -61 230 -61 397 0 167 14 254 61 397 147 439 541 764 1009 832 39
5 -143 9 -512 10 l-573 1 0 -1240z"/>
<path d="M1425 2469 c468 -68 862 -393 1009 -832 47 -143 61 -230 61 -397 0
-167 -14 -254 -61 -397 -147 -439 -541 -764 -1009 -832 -39 -5 143 -9 513 -10
l572 -1 0 1240 0 1240 -572 -1 c-370 -1 -552 -5 -513 -10z"/>
<path d="M490 1865 l0 -105 -95 0 -95 0 0 -320 0 -320 95 0 95 0 0 -120 0
-120 105 0 104 0 3 -92 3 -93 103 -3 102 -3 0 -114 0 -115 110 0 110 0 0 -95
0 -95 130 0 130 0 0 95 0 95 105 0 105 0 1 83 c1 45 2 96 1 114 l0 32 107 3
106 3 0 90 0 90 105 5 105 5 3 118 3 117 94 0 95 0 0 320 0 320 -95 0 -95 0 0
105 0 105 -335 0 -335 0 0 -105 0 -105 -100 0 -100 0 0 105 0 105 -335 0 -335
0 0 -105z m270 -355 l0 -221 -117 3 -118 3 -3 218 -2 217 120 0 120 0 0 -220z"/>
</g>
</svg>
