<?xml version="1.0" standalone="no"?>
<!DOCTYPE svg PUBLIC "-//W3C//DTD SVG 20010904//EN"
 "http://www.w3.org/TR/2001/REC-SVG-20010904/DTD/svg10.dtd">
<svg version="1.0" xmlns="http://www.w3.org/2000/svg"
 width="190.000000pt" height="171.000000pt" viewBox="0 0 190.000000 171.000000"
 preserveAspectRatio="xMidYMid meet">

<g transform="translate(0.000000,171.000000) scale(0.100000,-0.100000)"
fill="#000000" stroke="none">
<path d="M187 1703 c-4 -3 -7 -51 -7 -105 l0 -98 -90 0 -90 0 0 -320 0 -320
90 0 89 0 3 -112 3 -113 105 -5 105 -5 3 -92 3 -93 104 0 105 0 0 -120 0 -120
105 0 105 0 0 -95 0 -96 128 3 127 3 3 92 3 92 102 3 102 3 3 118 3 117 104 0
105 0 0 95 0 95 105 0 105 0 0 115 0 115 95 0 95 0 0 320 0 320 -95 0 -95 0 0
105 0 105 -327 -2 -328 -3 -3 -102 -3 -103 -104 0 -105 0 0 105 0 105 -323 0
c-178 0 -327 -3 -330 -7z m271 -450 l2 -223 -125 0 -125 0 0 225 0 226 123 -3
122 -3 3 -222z"/>
</g>
</svg>
